<svg width="100" height="100" viewBox="0 0 100 100" xmlns="http://www.w3.org/2000/svg">
  <g fill="none" stroke="white" stroke-width="2">
    <!-- Spider body -->
    <ellipse cx="50" cy="50" rx="15" ry="20" />
    <!-- Spider head -->
    <circle cx="50" cy="30" r="8" />
    <!-- Spider eyes -->
    <circle cx="47" cy="28" r="2" fill="white" />
    <circle cx="53" cy="28" r="2" fill="white" />
    <!-- Spider legs -->
    <path d="M40,40 C30,35 10,50 5,60" />
    <path d="M60,40 C70,35 90,50 95,60" />
    <path d="M40,50 C30,50 10,60 5,75" />
    <path d="M60,50 C70,50 90,60 95,75" />
    <path d="M40,60 C30,65 10,65 5,90" />
    <path d="M60,60 C70,65 90,65 95,90" />
    <!-- Spider web thread -->
    <path d="M50,10 C50,15 50,20 50,25" />
  </g>
</svg>
